<mxfile host="65bd71144e">
    <diagram id="PD8fdw5YokT8US8XobWj" name="Page-1">
        <mxGraphModel dx="3738" dy="824" grid="0" gridSize="10" guides="1" tooltips="1" connect="1" arrows="1" fold="1" page="1" pageScale="1" pageWidth="850" pageHeight="1100" background="#ffffff" math="0" shadow="0">
            <root>
                <mxCell id="0"/>
                <mxCell id="1" parent="0"/>
                <mxCell id="73" value="" style="rounded=0;whiteSpace=wrap;html=1;dashed=1;strokeColor=#1a1919;fontSize=14;fontColor=#1d1b1b;fillColor=#fcfcfc;" vertex="1" parent="1">
                    <mxGeometry x="-238" y="55.5" width="1304" height="1444" as="geometry"/>
                </mxCell>
                <mxCell id="71" value="" style="rounded=0;whiteSpace=wrap;html=1;strokeColor=#1a1919;fontSize=14;fontColor=#1d1b1b;fillColor=#fcfcfc;dashed=1;" vertex="1" parent="1">
                    <mxGeometry x="-1372" y="436" width="760" height="648" as="geometry"/>
                </mxCell>
                <mxCell id="8" value="" style="edgeStyle=none;html=1;strokeColor=#292929;strokeWidth=3;fontColor=#000000;" edge="1" parent="1" source="2" target="7">
                    <mxGeometry relative="1" as="geometry"/>
                </mxCell>
                <mxCell id="2" value="" style="rounded=0;whiteSpace=wrap;html=1;fillColor=#fcfcfc;strokeColor=#1a1919;" vertex="1" parent="1">
                    <mxGeometry x="514" y="119" width="190" height="137" as="geometry"/>
                </mxCell>
                <mxCell id="4" style="edgeStyle=none;html=1;exitX=0;exitY=0.5;exitDx=0;exitDy=0;entryX=1;entryY=0.5;entryDx=0;entryDy=0;fontColor=#000000;strokeColor=#292929;strokeWidth=3;" edge="1" parent="1" source="3" target="2">
                    <mxGeometry relative="1" as="geometry"/>
                </mxCell>
                <mxCell id="3" value="&lt;font color=&quot;#000000&quot;&gt;sign up&lt;/font&gt;" style="ellipse;whiteSpace=wrap;html=1;strokeColor=#1a1919;fillColor=#fcfcfc;" vertex="1" parent="1">
                    <mxGeometry x="782" y="147.5" width="120" height="80" as="geometry"/>
                </mxCell>
                <mxCell id="5" value="name&amp;nbsp;" style="rounded=0;whiteSpace=wrap;html=1;strokeColor=#1a1919;fontColor=#000000;fillColor=#fcfcfc;" vertex="1" parent="1">
                    <mxGeometry x="525" y="136" width="162" height="41" as="geometry"/>
                </mxCell>
                <mxCell id="6" value="password" style="rounded=0;whiteSpace=wrap;html=1;strokeColor=#1a1919;fontColor=#000000;fillColor=#fcfcfc;" vertex="1" parent="1">
                    <mxGeometry x="525" y="189" width="162" height="41" as="geometry"/>
                </mxCell>
                <mxCell id="7" value="&lt;font color=&quot;#1d1b1b&quot;&gt;email questoinnare&lt;/font&gt;" style="rounded=0;whiteSpace=wrap;html=1;fillColor=#fcfcfc;strokeColor=#1a1919;" vertex="1" parent="1">
                    <mxGeometry x="514" y="336" width="190" height="137" as="geometry"/>
                </mxCell>
                <mxCell id="11" value="" style="edgeStyle=none;html=1;strokeColor=#292929;strokeWidth=3;fontColor=#1d1b1b;" edge="1" parent="1" source="9" target="10">
                    <mxGeometry relative="1" as="geometry"/>
                </mxCell>
                <mxCell id="9" value="&lt;font color=&quot;#000000&quot;&gt;Login&lt;/font&gt;" style="ellipse;whiteSpace=wrap;html=1;strokeColor=#1a1919;fillColor=#fcfcfc;" vertex="1" parent="1">
                    <mxGeometry x="860" y="710" width="120" height="80" as="geometry"/>
                </mxCell>
                <mxCell id="10" value="" style="whiteSpace=wrap;html=1;fillColor=#fcfcfc;strokeColor=#1a1919;" vertex="1" parent="1">
                    <mxGeometry x="491" y="584" width="224" height="326" as="geometry"/>
                </mxCell>
                <mxCell id="43" style="edgeStyle=orthogonalEdgeStyle;html=1;exitX=0;exitY=0.5;exitDx=0;exitDy=0;entryX=1.008;entryY=0.318;entryDx=0;entryDy=0;entryPerimeter=0;strokeColor=#292929;strokeWidth=3;fontSize=14;fontColor=#1d1b1b;" edge="1" parent="1" source="13" target="24">
                    <mxGeometry relative="1" as="geometry">
                        <Array as="points">
                            <mxPoint x="399" y="631"/>
                            <mxPoint x="399" y="449"/>
                        </Array>
                    </mxGeometry>
                </mxCell>
                <mxCell id="13" value="&lt;font style=&quot;font-size: 14px;&quot;&gt;Home&lt;/font&gt;" style="rounded=1;whiteSpace=wrap;html=1;strokeColor=#1a1919;fontColor=#1d1b1b;fillColor=#fcfcfc;" vertex="1" parent="1">
                    <mxGeometry x="500" y="601" width="194" height="60" as="geometry"/>
                </mxCell>
                <mxCell id="46" style="edgeStyle=orthogonalEdgeStyle;html=1;exitX=0;exitY=0.5;exitDx=0;exitDy=0;entryX=1;entryY=0.25;entryDx=0;entryDy=0;strokeColor=#292929;strokeWidth=3;fontSize=14;fontColor=#1d1b1b;jumpStyle=arc;" edge="1" parent="1" source="17" target="36">
                    <mxGeometry relative="1" as="geometry">
                        <Array as="points">
                            <mxPoint x="445" y="708"/>
                            <mxPoint x="445" y="932"/>
                        </Array>
                    </mxGeometry>
                </mxCell>
                <mxCell id="17" value="&lt;span style=&quot;font-size: 14px;&quot;&gt;Products&lt;/span&gt;" style="rounded=1;whiteSpace=wrap;html=1;strokeColor=#1a1919;fontColor=#1d1b1b;fillColor=#fcfcfc;" vertex="1" parent="1">
                    <mxGeometry x="503" y="678" width="194" height="60" as="geometry"/>
                </mxCell>
                <mxCell id="42" style="edgeStyle=orthogonalEdgeStyle;html=1;exitX=0;exitY=0.5;exitDx=0;exitDy=0;strokeColor=#292929;strokeWidth=3;fontSize=14;fontColor=#1d1b1b;jumpStyle=arc;" edge="1" parent="1" source="18" target="30">
                    <mxGeometry relative="1" as="geometry"/>
                </mxCell>
                <mxCell id="18" value="&lt;span style=&quot;font-size: 14px;&quot;&gt;Orders&lt;/span&gt;" style="rounded=1;whiteSpace=wrap;html=1;strokeColor=#1a1919;fontColor=#1d1b1b;fillColor=#fcfcfc;" vertex="1" parent="1">
                    <mxGeometry x="498" y="755" width="194" height="60" as="geometry"/>
                </mxCell>
                <mxCell id="53" style="edgeStyle=orthogonalEdgeStyle;jumpStyle=arc;html=1;exitX=0;exitY=0.5;exitDx=0;exitDy=0;entryX=1;entryY=0.75;entryDx=0;entryDy=0;strokeColor=#292929;strokeWidth=3;fontSize=14;fontColor=#1d1b1b;" edge="1" parent="1" source="19" target="50">
                    <mxGeometry relative="1" as="geometry">
                        <Array as="points">
                            <mxPoint x="457" y="858"/>
                            <mxPoint x="457" y="1209"/>
                        </Array>
                    </mxGeometry>
                </mxCell>
                <mxCell id="19" value="&lt;span style=&quot;font-size: 14px;&quot;&gt;Settings&lt;/span&gt;" style="rounded=1;whiteSpace=wrap;html=1;strokeColor=#1a1919;fontColor=#1d1b1b;fillColor=#fcfcfc;" vertex="1" parent="1">
                    <mxGeometry x="500" y="828" width="194" height="60" as="geometry"/>
                </mxCell>
                <mxCell id="24" value="" style="rounded=0;whiteSpace=wrap;html=1;strokeColor=#1a1919;fontSize=14;fontColor=#1d1b1b;fillColor=#fcfcfc;" vertex="1" parent="1">
                    <mxGeometry x="81" y="382" width="276" height="209" as="geometry"/>
                </mxCell>
                <mxCell id="25" value="Revenue graph" style="rounded=0;whiteSpace=wrap;html=1;strokeColor=#1a1919;fontSize=14;fontColor=#1d1b1b;fillColor=#fcfcfc;" vertex="1" parent="1">
                    <mxGeometry x="95" y="399" width="246" height="40" as="geometry"/>
                </mxCell>
                <mxCell id="26" value="Dashoard" style="text;html=1;strokeColor=none;fillColor=none;align=center;verticalAlign=middle;whiteSpace=wrap;rounded=0;fontSize=14;fontColor=#1d1b1b;" vertex="1" parent="1">
                    <mxGeometry x="83" y="348" width="77" height="30" as="geometry"/>
                </mxCell>
                <mxCell id="27" value="Top Seling products" style="rounded=0;whiteSpace=wrap;html=1;strokeColor=#1a1919;fontSize=14;fontColor=#1d1b1b;fillColor=#fcfcfc;" vertex="1" parent="1">
                    <mxGeometry x="95" y="450" width="246" height="32" as="geometry"/>
                </mxCell>
                <mxCell id="28" value="Total income total number of orders" style="rounded=0;whiteSpace=wrap;html=1;strokeColor=#1a1919;fontSize=14;fontColor=#1d1b1b;fillColor=#fcfcfc;" vertex="1" parent="1">
                    <mxGeometry x="95" y="493" width="246" height="32" as="geometry"/>
                </mxCell>
                <mxCell id="29" value="Pending orders" style="rounded=0;whiteSpace=wrap;html=1;strokeColor=#1a1919;fontSize=14;fontColor=#1d1b1b;fillColor=#fcfcfc;" vertex="1" parent="1">
                    <mxGeometry x="91" y="536" width="246" height="32" as="geometry"/>
                </mxCell>
                <mxCell id="30" value="" style="rounded=0;whiteSpace=wrap;html=1;strokeColor=#1a1919;fontSize=14;fontColor=#1d1b1b;fillColor=#fcfcfc;" vertex="1" parent="1">
                    <mxGeometry x="81" y="650" width="276" height="199" as="geometry"/>
                </mxCell>
                <mxCell id="32" value="All orders" style="rounded=0;whiteSpace=wrap;html=1;strokeColor=#1a1919;fontSize=14;fontColor=#1d1b1b;fillColor=#fcfcfc;" vertex="1" parent="1">
                    <mxGeometry x="95" y="665" width="249" height="34" as="geometry"/>
                </mxCell>
                <mxCell id="33" value="Completed orders" style="rounded=0;whiteSpace=wrap;html=1;strokeColor=#1a1919;fontSize=14;fontColor=#1d1b1b;fillColor=#fcfcfc;" vertex="1" parent="1">
                    <mxGeometry x="95" y="710" width="249" height="34" as="geometry"/>
                </mxCell>
                <mxCell id="34" value="Pending orders" style="rounded=0;whiteSpace=wrap;html=1;strokeColor=#1a1919;fontSize=14;fontColor=#1d1b1b;fillColor=#fcfcfc;" vertex="1" parent="1">
                    <mxGeometry x="95" y="753" width="249" height="34" as="geometry"/>
                </mxCell>
                <mxCell id="35" value="Total orders" style="rounded=0;whiteSpace=wrap;html=1;strokeColor=#1a1919;fontSize=14;fontColor=#1d1b1b;fillColor=#fcfcfc;" vertex="1" parent="1">
                    <mxGeometry x="97" y="796" width="249" height="34" as="geometry"/>
                </mxCell>
                <mxCell id="36" value="" style="rounded=0;whiteSpace=wrap;html=1;strokeColor=#1a1919;fontSize=14;fontColor=#1d1b1b;fillColor=#fcfcfc;" vertex="1" parent="1">
                    <mxGeometry x="80" y="893" width="276" height="156" as="geometry"/>
                </mxCell>
                <mxCell id="41" style="edgeStyle=orthogonalEdgeStyle;html=1;exitX=0;exitY=0.5;exitDx=0;exitDy=0;entryX=1;entryY=0.5;entryDx=0;entryDy=0;strokeColor=#292929;strokeWidth=3;fontSize=14;fontColor=#1d1b1b;" edge="1" parent="1" source="37" target="40">
                    <mxGeometry relative="1" as="geometry"/>
                </mxCell>
                <mxCell id="37" value="upload products" style="rounded=0;whiteSpace=wrap;html=1;strokeColor=#1a1919;fontSize=14;fontColor=#1d1b1b;fillColor=#fcfcfc;" vertex="1" parent="1">
                    <mxGeometry x="95" y="910" width="238" height="31" as="geometry"/>
                </mxCell>
                <mxCell id="38" value="All products" style="rounded=0;whiteSpace=wrap;html=1;strokeColor=#1a1919;fontSize=14;fontColor=#1d1b1b;fillColor=#fcfcfc;" vertex="1" parent="1">
                    <mxGeometry x="95" y="954" width="238" height="31" as="geometry"/>
                </mxCell>
                <mxCell id="39" value="Modify products" style="rounded=0;whiteSpace=wrap;html=1;strokeColor=#1a1919;fontSize=14;fontColor=#1d1b1b;fillColor=#fcfcfc;" vertex="1" parent="1">
                    <mxGeometry x="95" y="1000" width="238" height="31" as="geometry"/>
                </mxCell>
                <mxCell id="40" value="product name&lt;br&gt;quantity&lt;br&gt;brand&lt;br&gt;category&lt;br&gt;description&lt;br&gt;price&lt;br&gt;" style="whiteSpace=wrap;html=1;fontSize=14;fillColor=#fcfcfc;strokeColor=#1a1919;fontColor=#1d1b1b;rounded=0;" vertex="1" parent="1">
                    <mxGeometry x="-208" y="546" width="198" height="123" as="geometry"/>
                </mxCell>
                <mxCell id="44" value="" style="rounded=0;whiteSpace=wrap;html=1;strokeColor=#1a1919;fontSize=14;fontColor=#1d1b1b;fillColor=#fcfcfc;" vertex="1" parent="1">
                    <mxGeometry x="76" y="1105" width="276" height="258" as="geometry"/>
                </mxCell>
                <mxCell id="48" value="" style="shape=cylinder3;whiteSpace=wrap;html=1;boundedLbl=1;backgroundOutline=1;size=15;strokeColor=#1a1919;fontSize=14;fontColor=#1d1b1b;fillColor=#fcfcfc;" vertex="1" parent="1">
                    <mxGeometry x="-463" y="466.00000000000006" width="110" height="146.67" as="geometry"/>
                </mxCell>
                <mxCell id="49" value="Change password" style="rounded=0;whiteSpace=wrap;html=1;strokeColor=#1a1919;fontSize=14;fontColor=#1d1b1b;fillColor=#fcfcfc;" vertex="1" parent="1">
                    <mxGeometry x="83" y="1117" width="259" height="45" as="geometry"/>
                </mxCell>
                <mxCell id="50" value="upload/edit image" style="rounded=0;whiteSpace=wrap;html=1;strokeColor=#1a1919;fontSize=14;fontColor=#1d1b1b;fillColor=#fcfcfc;" vertex="1" parent="1">
                    <mxGeometry x="83" y="1175" width="259" height="45" as="geometry"/>
                </mxCell>
                <mxCell id="51" value="upload image" style="rounded=0;whiteSpace=wrap;html=1;strokeColor=#1a1919;fontSize=14;fontColor=#1d1b1b;fillColor=#fcfcfc;" vertex="1" parent="1">
                    <mxGeometry x="82" y="1233" width="259" height="45" as="geometry"/>
                </mxCell>
                <mxCell id="52" value="" style="shape=flexArrow;endArrow=classic;startArrow=classic;html=1;strokeColor=#292929;strokeWidth=3;fontSize=14;fontColor=#1d1b1b;jumpStyle=arc;exitX=0;exitY=0;exitDx=0;exitDy=0;" edge="1" parent="1" source="40" target="48">
                    <mxGeometry width="100" height="100" relative="1" as="geometry">
                        <mxPoint x="-384" y="797" as="sourcePoint"/>
                        <mxPoint x="-284" y="697" as="targetPoint"/>
                    </mxGeometry>
                </mxCell>
                <mxCell id="54" value="" style="rounded=0;whiteSpace=wrap;html=1;strokeColor=#1a1919;fontSize=14;fontColor=#1d1b1b;fillColor=#fcfcfc;" vertex="1" parent="1">
                    <mxGeometry x="-921" y="573" width="232" height="175" as="geometry"/>
                </mxCell>
                <mxCell id="70" style="edgeStyle=orthogonalEdgeStyle;jumpStyle=arc;html=1;exitX=0;exitY=0.5;exitDx=0;exitDy=0;entryX=1;entryY=0.5;entryDx=0;entryDy=0;strokeColor=#292929;strokeWidth=3;fontSize=14;fontColor=#1d1b1b;" edge="1" parent="1" source="55" target="60">
                    <mxGeometry relative="1" as="geometry"/>
                </mxCell>
                <mxCell id="55" value="Display list of equipment by search / All equipment and farmers" style="rounded=0;whiteSpace=wrap;html=1;strokeColor=#1a1919;fontSize=14;fontColor=#1d1b1b;fillColor=#fcfcfc;" vertex="1" parent="1">
                    <mxGeometry x="-913" y="584" width="214" height="70" as="geometry"/>
                </mxCell>
                <mxCell id="58" value="Display list of equipment by search / All equipment and farmers" style="rounded=0;whiteSpace=wrap;html=1;strokeColor=#1a1919;fontSize=14;fontColor=#1d1b1b;fillColor=#fcfcfc;" vertex="1" parent="1">
                    <mxGeometry x="-912" y="661" width="214" height="70" as="geometry"/>
                </mxCell>
                <mxCell id="60" value="" style="rounded=0;whiteSpace=wrap;html=1;strokeColor=#1a1919;fontSize=14;fontColor=#1d1b1b;fillColor=#fcfcfc;" vertex="1" parent="1">
                    <mxGeometry x="-1283" y="656" width="264" height="243" as="geometry"/>
                </mxCell>
                <mxCell id="59" value="Name of Equipment&lt;br&gt;Seller&lt;br&gt;Quantity available" style="rounded=0;whiteSpace=wrap;html=1;strokeColor=#1a1919;fontSize=14;fontColor=#1d1b1b;fillColor=#fcfcfc;" vertex="1" parent="1">
                    <mxGeometry x="-1264" y="673" width="220" height="77" as="geometry"/>
                </mxCell>
                <mxCell id="67" style="edgeStyle=orthogonalEdgeStyle;jumpStyle=arc;html=1;exitX=0.5;exitY=1;exitDx=0;exitDy=0;strokeColor=#292929;strokeWidth=3;fontSize=14;fontColor=#1d1b1b;" edge="1" parent="1" source="61" target="66">
                    <mxGeometry relative="1" as="geometry"/>
                </mxCell>
                <mxCell id="61" value="Purchase Btn&amp;nbsp;" style="rounded=1;whiteSpace=wrap;html=1;strokeColor=#1a1919;fontSize=14;fontColor=#1d1b1b;fillColor=#fcfcfc;" vertex="1" parent="1">
                    <mxGeometry x="-1263" y="785" width="219" height="60" as="geometry"/>
                </mxCell>
                <mxCell id="68" style="edgeStyle=orthogonalEdgeStyle;jumpStyle=arc;html=1;exitX=0.5;exitY=1;exitDx=0;exitDy=0;entryX=0;entryY=0.5;entryDx=0;entryDy=0;strokeColor=#292929;strokeWidth=3;fontSize=14;fontColor=#1d1b1b;" edge="1" parent="1" source="66" target="30">
                    <mxGeometry relative="1" as="geometry"/>
                </mxCell>
                <mxCell id="66" value="Stripe function" style="shape=parallelogram;perimeter=parallelogramPerimeter;whiteSpace=wrap;html=1;fixedSize=1;strokeColor=#1a1919;fontSize=14;fontColor=#1d1b1b;fillColor=#fcfcfc;" vertex="1" parent="1">
                    <mxGeometry x="-722" y="1269" width="120" height="39" as="geometry"/>
                </mxCell>
                <mxCell id="69" value="" style="shape=flexArrow;endArrow=classic;startArrow=classic;html=1;strokeColor=#292929;strokeWidth=3;fontSize=14;fontColor=#1d1b1b;jumpStyle=arc;" edge="1" parent="1" target="48">
                    <mxGeometry width="100" height="100" relative="1" as="geometry">
                        <mxPoint x="-686" y="694" as="sourcePoint"/>
                        <mxPoint x="-586" y="594" as="targetPoint"/>
                    </mxGeometry>
                </mxCell>
                <mxCell id="72" value="farmer Account" style="text;html=1;strokeColor=none;fillColor=none;align=center;verticalAlign=middle;whiteSpace=wrap;rounded=0;dashed=1;fontSize=14;fontColor=#1d1b1b;" vertex="1" parent="1">
                    <mxGeometry x="-1367" y="382" width="60" height="30" as="geometry"/>
                </mxCell>
                <mxCell id="74" value="&lt;font style=&quot;font-size: 16px;&quot;&gt;Supplier&lt;/font&gt;" style="text;html=1;strokeColor=none;fillColor=none;align=center;verticalAlign=middle;whiteSpace=wrap;rounded=0;dashed=1;fontSize=14;fontColor=#1d1b1b;" vertex="1" parent="1">
                    <mxGeometry x="-238" y="17" width="60" height="30" as="geometry"/>
                </mxCell>
                <mxCell id="75" value="Add account details" style="rounded=0;whiteSpace=wrap;html=1;strokeColor=#1a1919;fontSize=14;fontColor=#1d1b1b;fillColor=#fcfcfc;" vertex="1" parent="1">
                    <mxGeometry x="84.5" y="1291" width="259" height="45" as="geometry"/>
                </mxCell>
            </root>
        </mxGraphModel>
    </diagram>
</mxfile>